REM DIRINDEX 1\2,1\4,1\5,1\6,1\7,1\3\8,1\3\9,1\3\10
REM DIRNAME folder01,folder02,folder03,folder04,folder05,folder06,folder07,folder08,folder09,folder10
TITLE ""
FILE "DB4500_5th_2A_29.mp3" MP3
  TRACK 01 AUDIO
    TITLE "8:cjc113_1095"
    INDEX 01 00:00:00
  TRACK 02 AUDIO
    TITLE "0:"
    INDEX 01 00:01:03
  TRACK 03 AUDIO
    TITLE "9:cjc113_1096"
    INDEX 01 00:01:26
  TRACK 04 AUDIO
    TITLE "0:"
    INDEX 01 00:02:67
  TRACK 05 AUDIO
    TITLE "10:cjc113_1097"
    INDEX 01 00:03:14
  TRACK 06 AUDIO
    TITLE "0:"
    INDEX 01 00:06:31
  TRACK 07 AUDIO
    TITLE "8:cjc113_1098"
    INDEX 01 00:07:03
  TRACK 08 AUDIO
    TITLE "0:"
    INDEX 01 00:08:13
  TRACK 09 AUDIO
    TITLE "9:cjc113_1099"
    INDEX 01 00:08:30
  TRACK 10 AUDIO
    TITLE "0:"
    INDEX 01 00:09:45
  TRACK 11 AUDIO
    TITLE "10:cjc113_1100"
    INDEX 01 00:09:65
  TRACK 12 AUDIO
    TITLE "0:"
    INDEX 01 00:12:28
  TRACK 13 AUDIO
    TITLE "10:cjc113_1101"
    INDEX 01 00:12:61
  TRACK 14 AUDIO
    TITLE "0:"
    INDEX 01 00:16:48
  TRACK 15 AUDIO
    TITLE "8:cjc113_1102"
    INDEX 01 00:17:18
  TRACK 16 AUDIO
    TITLE "0:"
    INDEX 01 00:18:31
  TRACK 17 AUDIO
    TITLE "9:cjc113_1103"
    INDEX 01 00:18:54
  TRACK 18 AUDIO
    TITLE "0:"
    INDEX 01 00:19:67
  TRACK 19 AUDIO
    TITLE "10:cjc113_1104"
    INDEX 01 00:20:14
  TRACK 20 AUDIO
    TITLE "0:"
    INDEX 01 00:22:58
  TRACK 21 AUDIO
    TITLE "8:cjc113_1105"
    INDEX 01 00:23:32
  TRACK 22 AUDIO
    TITLE "0:"
    INDEX 01 00:24:55
  TRACK 23 AUDIO
    TITLE "9:cjc113_1106"
    INDEX 01 00:25:03
  TRACK 24 AUDIO
    TITLE "0:"
    INDEX 01 00:26:24
  TRACK 25 AUDIO
    TITLE "10:cjc113_1107"
    INDEX 01 00:26:44
  TRACK 26 AUDIO
    TITLE "0:"
    INDEX 01 00:29:64
  TRACK 27 AUDIO
    TITLE "8:cjc113_1108"
    INDEX 01 00:30:36
  TRACK 28 AUDIO
    TITLE "0:"
    INDEX 01 00:31:49
  TRACK 29 AUDIO
    TITLE "9:cjc113_1109"
    INDEX 01 00:31:69
  TRACK 30 AUDIO
    TITLE "0:"
    INDEX 01 00:33:13
  TRACK 31 AUDIO
    TITLE "10:cjc113_1110"
    INDEX 01 00:33:30
  TRACK 32 AUDIO
    TITLE "0:"
    INDEX 01 00:36:58
  TRACK 33 AUDIO
    TITLE "8:cjc113_1111"
    INDEX 01 00:37:34
  TRACK 34 AUDIO
    TITLE "0:"
    INDEX 01 00:38:55
  TRACK 35 AUDIO
    TITLE "9:cjc113_1112"
    INDEX 01 00:39:00
  TRACK 36 AUDIO
    TITLE "0:"
    INDEX 01 00:40:07
  TRACK 37 AUDIO
    TITLE "10:cjc113_1113"
    INDEX 01 00:40:30
  TRACK 38 AUDIO
    TITLE "0:"
    INDEX 01 00:43:19
  TRACK 39 AUDIO
    TITLE "8:cjc113_1114"
    INDEX 01 00:43:66
  TRACK 40 AUDIO
    TITLE "0:"
    INDEX 01 00:45:16
  TRACK 41 AUDIO
    TITLE "9:cjc113_1115"
    INDEX 01 00:45:33
  TRACK 42 AUDIO
    TITLE "0:"
    INDEX 01 00:46:60
  TRACK 43 AUDIO
    TITLE "10:cjc113_1116"
    INDEX 01 00:47:19
  TRACK 44 AUDIO
    TITLE "0:"
    INDEX 01 00:50:54
  TRACK 45 AUDIO
    TITLE "8:cjc113_1117"
    INDEX 01 00:51:24
  TRACK 46 AUDIO
    TITLE "0:"
    INDEX 01 00:52:28
  TRACK 47 AUDIO
    TITLE "9:cjc113_1118"
    INDEX 01 00:52:51
  TRACK 48 AUDIO
    TITLE "0:"
    INDEX 01 00:53:64
  TRACK 49 AUDIO
    TITLE "10:cjc113_1119"
    INDEX 01 00:54:11
  TRACK 50 AUDIO
    TITLE "0:"
    INDEX 01 00:56:61
  TRACK 51 AUDIO
    TITLE "8:cjc113_1120"
    INDEX 01 00:57:25
  TRACK 52 AUDIO
    TITLE "0:"
    INDEX 01 00:58:40
  TRACK 53 AUDIO
    TITLE "9:cjc113_1121"
    INDEX 01 00:58:56
  TRACK 54 AUDIO
    TITLE "0:"
    INDEX 01 01:00:23
  TRACK 55 AUDIO
    TITLE "10:cjc113_1122"
    INDEX 01 01:00:41
  TRACK 56 AUDIO
    TITLE "0:"
    INDEX 01 01:04:15
  TRACK 57 AUDIO
    TITLE "8:cjc113_1123"
    INDEX 01 01:04:56
  TRACK 58 AUDIO
    TITLE "0:"
    INDEX 01 01:05:42
  TRACK 59 AUDIO
    TITLE "9:cjc113_1124"
    INDEX 01 01:05:69
  TRACK 60 AUDIO
    TITLE "0:"
    INDEX 01 01:07:35
  TRACK 61 AUDIO
    TITLE "10:cjc113_1125"
    INDEX 01 01:07:53
  TRACK 62 AUDIO
    TITLE "0:"
    INDEX 01 01:10:63
  TRACK 63 AUDIO
    TITLE "8:cjc113_1126"
    INDEX 01 01:11:33
  TRACK 64 AUDIO
    TITLE "0:"
    INDEX 01 01:12:48
  TRACK 65 AUDIO
    TITLE "9:cjc113_1127"
    INDEX 01 01:12:66
  TRACK 66 AUDIO
    TITLE "0:"
    INDEX 01 01:14:25
  TRACK 67 AUDIO
    TITLE "10:cjc113_1128"
    INDEX 01 01:14:43
  TRACK 68 AUDIO
    TITLE "0:"
    INDEX 01 01:19:27
  TRACK 69 AUDIO
    TITLE "8:cjc113_1129"
    INDEX 01 01:19:68
  TRACK 70 AUDIO
    TITLE "0:"
    INDEX 01 01:21:27
  TRACK 71 AUDIO
    TITLE "9:cjc113_1130"
    INDEX 01 01:21:45
  TRACK 72 AUDIO
    TITLE "0:"
    INDEX 01 01:23:52
  TRACK 73 AUDIO
    TITLE "10:cjc113_1131"
    INDEX 01 01:23:71
  TRACK 74 AUDIO
    TITLE "0:"
    INDEX 01 01:29:03
